<mxfile host="app.diagrams.net" modified="2020-12-31T08:26:38.724Z" agent="5.0 (Macintosh; Intel Mac OS X 10_15_6) AppleWebKit/537.36 (KHTML, like Gecko) Chrome/87.0.4280.88 Safari/537.36" etag="KNqOVlMqfB2LZyb4SPhT" version="14.1.2" type="github">
  <diagram id="vkNS-ux78XkrAzjE5yEm" name="Page-1">
    <mxGraphModel dx="786" dy="427" grid="1" gridSize="10" guides="1" tooltips="1" connect="1" arrows="1" fold="1" page="1" pageScale="1" pageWidth="827" pageHeight="1169" background="#114B5F" math="0" shadow="0">
      <root>
        <mxCell id="0" />
        <mxCell id="1" parent="0" />
        <mxCell id="_N30-8KWYY2U87UxxjHT-1" value="" style="shape=table;html=1;whiteSpace=wrap;startSize=0;container=1;collapsible=0;childLayout=tableLayout;fontFamily=Architects Daughter;fontSource=https%3A%2F%2Ffonts.googleapis.com%2Fcss%3Ffamily%3DArchitects%2BDaughter;comic=1;fillColor=#F45B69;strokeColor=#028090;fontColor=#E4FDE1;" vertex="1" parent="1">
          <mxGeometry x="200" y="90" width="140" height="270" as="geometry" />
        </mxCell>
        <mxCell id="_N30-8KWYY2U87UxxjHT-2" value="" style="shape=partialRectangle;html=1;whiteSpace=wrap;collapsible=0;dropTarget=0;pointerEvents=0;fillColor=none;top=0;left=0;bottom=0;right=0;points=[[0,0.5],[1,0.5]];portConstraint=eastwest;strokeColor=#028090;fontColor=#E4FDE1;" vertex="1" parent="_N30-8KWYY2U87UxxjHT-1">
          <mxGeometry width="140" height="45" as="geometry" />
        </mxCell>
        <mxCell id="_N30-8KWYY2U87UxxjHT-3" value="&lt;font face=&quot;Architects Daughter&quot; data-font-src=&quot;https://fonts.googleapis.com/css?family=Architects+Daughter&quot;&gt;secion name&lt;/font&gt;" style="shape=partialRectangle;html=1;whiteSpace=wrap;connectable=0;overflow=hidden;fillColor=none;top=0;left=0;bottom=0;right=0;strokeColor=#028090;fontColor=#E4FDE1;" vertex="1" parent="_N30-8KWYY2U87UxxjHT-2">
          <mxGeometry width="140" height="45" as="geometry" />
        </mxCell>
        <mxCell id="_N30-8KWYY2U87UxxjHT-4" value="" style="shape=partialRectangle;html=1;whiteSpace=wrap;collapsible=0;dropTarget=0;pointerEvents=0;fillColor=none;top=0;left=0;bottom=0;right=0;points=[[0,0.5],[1,0.5]];portConstraint=eastwest;strokeColor=#028090;fontColor=#E4FDE1;" vertex="1" parent="_N30-8KWYY2U87UxxjHT-1">
          <mxGeometry y="45" width="140" height="45" as="geometry" />
        </mxCell>
        <mxCell id="_N30-8KWYY2U87UxxjHT-5" value="&lt;font face=&quot;Architects Daughter&quot;&gt;segment name&lt;/font&gt;" style="shape=partialRectangle;html=1;whiteSpace=wrap;connectable=0;overflow=hidden;fillColor=none;top=0;left=0;bottom=0;right=0;strokeColor=#028090;fontColor=#E4FDE1;" vertex="1" parent="_N30-8KWYY2U87UxxjHT-4">
          <mxGeometry width="140" height="45" as="geometry" />
        </mxCell>
        <mxCell id="_N30-8KWYY2U87UxxjHT-6" value="" style="shape=partialRectangle;html=1;whiteSpace=wrap;collapsible=0;dropTarget=0;pointerEvents=0;fillColor=none;top=0;left=0;bottom=0;right=0;points=[[0,0.5],[1,0.5]];portConstraint=eastwest;strokeColor=#028090;fontColor=#E4FDE1;" vertex="1" parent="_N30-8KWYY2U87UxxjHT-1">
          <mxGeometry y="90" width="140" height="45" as="geometry" />
        </mxCell>
        <mxCell id="_N30-8KWYY2U87UxxjHT-7" value="&lt;font face=&quot;Architects Daughter&quot; data-font-src=&quot;https://fonts.googleapis.com/css?family=Architects+Daughter&quot;&gt;address&lt;/font&gt;" style="shape=partialRectangle;html=1;whiteSpace=wrap;connectable=0;overflow=hidden;fillColor=none;top=0;left=0;bottom=0;right=0;strokeColor=#028090;fontColor=#E4FDE1;" vertex="1" parent="_N30-8KWYY2U87UxxjHT-6">
          <mxGeometry width="140" height="45" as="geometry" />
        </mxCell>
        <mxCell id="_N30-8KWYY2U87UxxjHT-8" value="" style="shape=partialRectangle;html=1;whiteSpace=wrap;collapsible=0;dropTarget=0;pointerEvents=0;fillColor=none;top=0;left=0;bottom=0;right=0;points=[[0,0.5],[1,0.5]];portConstraint=eastwest;strokeColor=#028090;fontColor=#E4FDE1;" vertex="1" parent="_N30-8KWYY2U87UxxjHT-1">
          <mxGeometry y="135" width="140" height="45" as="geometry" />
        </mxCell>
        <mxCell id="_N30-8KWYY2U87UxxjHT-9" value="size" style="shape=partialRectangle;html=1;whiteSpace=wrap;connectable=0;overflow=hidden;fillColor=none;top=0;left=0;bottom=0;right=0;fontFamily=Architects Daughter;fontSource=https%3A%2F%2Ffonts.googleapis.com%2Fcss%3Ffamily%3DArchitects%2BDaughter;strokeColor=#028090;fontColor=#E4FDE1;" vertex="1" parent="_N30-8KWYY2U87UxxjHT-8">
          <mxGeometry width="140" height="45" as="geometry" />
        </mxCell>
        <mxCell id="_N30-8KWYY2U87UxxjHT-10" value="" style="shape=partialRectangle;html=1;whiteSpace=wrap;collapsible=0;dropTarget=0;pointerEvents=0;fillColor=none;top=0;left=0;bottom=0;right=0;points=[[0,0.5],[1,0.5]];portConstraint=eastwest;strokeColor=#028090;fontColor=#E4FDE1;" vertex="1" parent="_N30-8KWYY2U87UxxjHT-1">
          <mxGeometry y="180" width="140" height="45" as="geometry" />
        </mxCell>
        <mxCell id="_N30-8KWYY2U87UxxjHT-11" value="indirect sym index = 1" style="shape=partialRectangle;html=1;whiteSpace=wrap;connectable=0;overflow=hidden;fillColor=none;top=0;left=0;bottom=0;right=0;fontFamily=Architects Daughter;fontSource=https%3A%2F%2Ffonts.googleapis.com%2Fcss%3Ffamily%3DArchitects%2BDaughter;strokeColor=#028090;fontColor=#E4FDE1;" vertex="1" parent="_N30-8KWYY2U87UxxjHT-10">
          <mxGeometry width="140" height="45" as="geometry" />
        </mxCell>
        <mxCell id="_N30-8KWYY2U87UxxjHT-12" style="shape=partialRectangle;html=1;whiteSpace=wrap;collapsible=0;dropTarget=0;pointerEvents=0;fillColor=none;top=0;left=0;bottom=0;right=0;points=[[0,0.5],[1,0.5]];portConstraint=eastwest;strokeColor=#028090;fontColor=#E4FDE1;" vertex="1" parent="_N30-8KWYY2U87UxxjHT-1">
          <mxGeometry y="225" width="140" height="45" as="geometry" />
        </mxCell>
        <mxCell id="_N30-8KWYY2U87UxxjHT-13" value="..." style="shape=partialRectangle;html=1;whiteSpace=wrap;connectable=0;overflow=hidden;fillColor=none;top=0;left=0;bottom=0;right=0;strokeColor=#028090;fontColor=#E4FDE1;" vertex="1" parent="_N30-8KWYY2U87UxxjHT-12">
          <mxGeometry width="140" height="45" as="geometry" />
        </mxCell>
        <mxCell id="_N30-8KWYY2U87UxxjHT-15" value="&lt;font face=&quot;Architects Daughter&quot; data-font-src=&quot;https://fonts.googleapis.com/css?family=Architects+Daughter&quot;&gt;__got Section Header&lt;/font&gt;" style="text;html=1;align=center;verticalAlign=middle;resizable=0;points=[];autosize=1;fontColor=#E4FDE1;" vertex="1" parent="1">
          <mxGeometry x="210" y="60" width="140" height="20" as="geometry" />
        </mxCell>
      </root>
    </mxGraphModel>
  </diagram>
</mxfile>
